<svg width="34" height="24" viewBox="0 0 34 24" fill="none" xmlns="http://www.w3.org/2000/svg">
<path fill-rule="evenodd" clip-rule="evenodd" d="M0.125 2.15625C0.125 1.78329 0.273158 1.4256 0.536881 1.16188C0.800604 0.898158 1.15829 0.75 1.53125 0.75H32.4688C32.8417 0.75 33.1994 0.898158 33.4631 1.16188C33.7268 1.4256 33.875 1.78329 33.875 2.15625C33.875 2.52921 33.7268 2.8869 33.4631 3.15062C33.1994 3.41434 32.8417 3.5625 32.4688 3.5625H1.53125C1.15829 3.5625 0.800604 3.41434 0.536881 3.15062C0.273158 2.8869 0.125 2.52921 0.125 2.15625ZM0.125 12C0.125 11.627 0.273158 11.2694 0.536881 11.0056C0.800604 10.7419 1.15829 10.5938 1.53125 10.5938H32.4688C32.8417 10.5938 33.1994 10.7419 33.4631 11.0056C33.7268 11.2694 33.875 11.627 33.875 12C33.875 12.373 33.7268 12.7306 33.4631 12.9944C33.1994 13.2581 32.8417 13.4062 32.4688 13.4062H1.53125C1.15829 13.4062 0.800604 13.2581 0.536881 12.9944C0.273158 12.7306 0.125 12.373 0.125 12ZM0.125 21.8438C0.125 21.4708 0.273158 21.1131 0.536881 20.8494C0.800604 20.5857 1.15829 20.4375 1.53125 20.4375H32.4688C32.8417 20.4375 33.1994 20.5857 33.4631 20.8494C33.7268 21.1131 33.875 21.4708 33.875 21.8438C33.875 22.2167 33.7268 22.5744 33.4631 22.8381C33.1994 23.1018 32.8417 23.25 32.4688 23.25H1.53125C1.15829 23.25 0.800604 23.1018 0.536881 22.8381C0.273158 22.5744 0.125 22.2167 0.125 21.8438Z" fill="black"/>
</svg>
