<svg width="165" height="178" viewBox="0 0 165 178" fill="none" xmlns="http://www.w3.org/2000/svg">
<g clip-path="url(#clip0_28_124)">
<path d="M154.774 135.263H31.5005C29.2135 135.26 27.3602 133.402 27.3575 131.109V30.4547C27.3602 28.1614 29.2135 26.303 31.5005 26.3003H154.774C157.061 26.303 158.914 28.1614 158.917 30.4547V131.109C158.914 133.402 157.061 135.26 154.774 135.263Z" fill="#E6E6E6"/>
<path d="M142.797 132.461H34.2957C32.0087 132.458 30.1554 130.6 30.1527 128.306V33.2592C30.1554 30.9659 32.0087 29.1074 34.2957 29.1048H151.98C154.267 29.1074 156.12 30.9659 156.123 33.2592V119.098C156.114 126.475 150.153 132.452 142.797 132.461Z" fill="white"/>
<path d="M112.981 50.5965H63.4342C62.8441 50.5965 62.3657 50.1168 62.3657 49.5251C62.3657 48.9334 62.8441 48.4537 63.4342 48.4537H112.981C113.571 48.4537 114.049 48.9334 114.049 49.5251C114.049 50.1168 113.571 50.5965 112.981 50.5965Z" fill="#FFD690"/>
<path d="M138.062 62.0279H63.4342C62.8441 62.0279 62.3657 61.5482 62.3657 60.9565C62.3657 60.3647 62.8441 59.8851 63.4342 59.8851H138.062C138.652 59.8851 139.131 60.3648 139.131 60.9565C139.131 61.5482 138.652 62.0279 138.062 62.0279Z" fill="#E6E6E6"/>
<path d="M138.062 73.4593H63.4342C62.8441 73.4593 62.3657 72.9796 62.3657 72.3879C62.3657 71.7961 62.8441 71.3164 63.4342 71.3164H138.062C138.652 71.3164 139.131 71.7961 139.131 72.3879C139.131 72.9796 138.652 73.4593 138.062 73.4593Z" fill="#E6E6E6"/>
<path d="M138.062 84.8907H63.4342C62.8441 84.8907 62.3657 84.411 62.3657 83.8193C62.3657 83.2275 62.8441 82.7478 63.4342 82.7478H138.062C138.652 82.7478 139.131 83.2275 139.131 83.8193C139.131 84.411 138.652 84.8907 138.062 84.8907Z" fill="#E6E6E6"/>
<path d="M138.062 96.3221H63.4342C62.8441 96.3221 62.3657 95.8424 62.3657 95.2506C62.3657 94.6589 62.8441 94.1792 63.4342 94.1792H138.062C138.652 94.1792 139.131 94.6589 139.131 95.2506C139.131 95.8424 138.652 96.3221 138.062 96.3221Z" fill="#E6E6E6"/>
<path d="M134.706 114.539C131.718 114.539 129.296 112.11 129.296 109.113C129.296 106.117 131.718 103.688 134.706 103.688C137.694 103.688 140.116 106.117 140.116 109.113C140.116 112.11 137.694 114.539 134.706 114.539Z" fill="#FFD690"/>
<path d="M137.75 108.856L136.216 106.611C136.075 106.403 135.792 106.349 135.584 106.491C135.376 106.632 135.323 106.916 135.464 107.124L135.465 107.126L136.457 108.578H132.571C132.277 108.577 132.037 108.816 132.036 109.112C132.035 109.407 132.273 109.648 132.568 109.649H136.506L135.465 111.172C135.324 111.38 135.378 111.664 135.586 111.805C135.793 111.946 136.074 111.893 136.216 111.687L137.75 109.443C137.851 109.26 137.851 109.038 137.75 108.856Z" fill="white"/>
<path d="M163.962 11.4569H22.3136C22.0098 11.4503 21.7688 11.1981 21.7753 10.8936C21.7816 10.5982 22.019 10.3602 22.3136 10.3539H163.962C164.265 10.3604 164.506 10.6126 164.5 10.9172C164.494 11.2126 164.256 11.4505 163.962 11.4569Z" fill="#CACACA"/>
<path d="M40.0401 120.176C40.8591 119.489 40.9676 118.266 40.2824 117.445C40.2093 117.357 40.1287 117.276 40.0414 117.203L38.8684 107.039L35.1439 107.904L37.2137 117.538C36.58 118.407 36.7689 119.627 37.6356 120.262C38.3608 120.794 39.3548 120.758 40.0401 120.176Z" fill="#FFB6B6"/>
<path d="M39.6552 108.696L35.3434 111.394C35.3434 111.394 35.0809 112.975 34.7844 109.002C34.7534 108.587 35.042 107.864 35.0103 107.439C34.9745 106.958 33.6028 106.74 33.5667 106.254C33.541 105.908 33.9375 105.601 33.9119 105.256C33.8731 104.733 33.8346 104.214 33.7968 103.702C33.7651 103.275 33.2927 103.004 33.2623 102.591C33.2315 102.175 33.6428 101.617 33.6138 101.223C33.3965 98.265 34.1481 90.8241 34.1481 90.6727C34.09 90.2928 33.9318 89.9354 33.6899 89.6373L33.92 88.9471L33.7678 87.652C33.5678 85.9502 33.9246 84.2294 34.7844 82.7485L35.8795 82.0295L40.9323 90.5517C38.806 97.9263 37.418 100.823 39.6552 108.696Z" fill="#FFD690"/>
<path d="M36.2906 172.239H38.899L40.1404 162.15H36.2906V172.239Z" fill="#FFB6B6"/>
<path d="M35.4395 170.448L39.6067 170.198V171.989L43.5685 174.732C44.0754 175.083 44.2026 175.78 43.8526 176.288C43.6444 176.59 43.3013 176.771 42.9348 176.771H37.9737L37.1185 175L36.7846 176.771H34.9141L35.4395 170.448Z" fill="#2F2E41"/>
<path d="M50.9425 172.239H53.5508L54.792 162.15H50.9425V172.239Z" fill="#FFB6B6"/>
<path d="M50.0911 170.448L54.2583 170.198V171.989L58.2201 174.732C58.727 175.083 58.8542 175.78 58.5042 176.288C58.296 176.59 57.9529 176.771 57.5864 176.771H52.6252L51.7701 175L51.4362 176.771H49.5657L50.0911 170.448Z" fill="#2F2E41"/>
<path d="M35.1835 163.539H35.1937L35.6953 139.513C35.036 138.238 35.057 136.716 35.7514 135.46L35.8233 135.329L35.6371 134.464C35.3979 133.352 35.5076 132.193 35.9513 131.146L36.4192 115.844C34.7473 104.979 42.7151 97.8929 42.7151 97.8929H54.651L57.2135 106.721C58.9076 123.271 58.6002 147.021 55.912 162.646L55.9853 162.683C56.274 162.844 56.3853 163.205 56.2381 163.502C56.1139 163.863 55.7993 164.081 55.5354 163.99L49.2319 163.77C48.9432 163.608 48.8318 163.248 48.9791 162.951C49.1033 162.59 49.4179 162.372 49.6818 162.463L50.1104 162.68L49.6681 161.778C49.1257 160.671 49.2306 159.354 49.9415 158.348L49.864 156.36C49.1939 155.573 48.9711 154.498 49.2734 153.508L49.6986 152.117L49.1963 139.229L49.2978 136.338L49.0888 133.058L48.1226 118.304L44.4653 136.447L40.7296 163.722C40.9124 163.887 40.9927 164.138 40.9397 164.379C40.8604 164.703 40.568 164.928 40.2358 164.922H35.1653C34.7838 164.921 34.4749 164.611 34.4752 164.228C34.4753 164.166 34.4837 164.105 34.5001 164.045C34.5881 163.741 34.8681 163.534 35.1835 163.539Z" fill="#2F2E41"/>
<path d="M64.1892 116.226C64.8632 115.396 64.738 114.175 63.9096 113.499C63.8212 113.427 63.7268 113.363 63.6272 113.307L60.5496 103.552L57.0569 105.111L60.9146 114.175C60.4571 115.149 60.8736 116.311 61.845 116.77C62.6577 117.153 63.6268 116.929 64.1892 116.226Z" fill="#FFB6B6"/>
<path d="M51.5256 85.2139C51.5256 85.2139 55.0356 97.6695 54.8767 98.9277C54.5488 101.522 38.4194 109.498 37.2198 105.949L37.3702 104.782C36.7642 103.567 40.4614 98.7436 40.6409 98.1126C40.869 97.3059 39.8364 94.6571 39.8364 94.6571C39.8364 94.6571 40.5501 92.2392 40.4361 90.7422C40.32 89.2453 39.9758 89.4761 38.7131 88.5529C37.4505 87.6319 35.3833 83.3718 35.3833 83.3718C35.3833 83.3718 36.3018 79.2261 36.3018 78.4194C36.3018 77.6128 40.075 76.2386 40.5332 75.7791C40.7327 75.5123 40.9006 75.2231 41.0336 74.9174C41.1266 74.7311 41.0674 74.2991 41.1667 74.0853C41.23 73.9455 41.4517 74.0324 41.5172 73.8884C41.5805 73.7487 41.5256 73.5877 41.589 73.4501C41.6713 73.268 41.8698 73.1092 41.9479 72.9377C42.3069 72.1501 42.6131 71.5085 42.7081 71.5085C42.9361 71.5085 50.2883 72.546 50.2883 72.546C50.6885 73.1666 51.1497 73.7454 51.665 74.2737C52.4695 75.0783 56.2343 77.0368 56.2343 77.0368L51.5256 85.2139Z" fill="#FFD690"/>
<path d="M61.4534 106.168C60.879 106.744 58.0371 109.389 57.9209 108.696C57.8069 108.006 57.7448 107.923 57.2845 107.695C56.8242 107.464 56.8242 107.35 56.7102 106.543C56.5962 105.736 55.5616 104.93 55.6777 104.584C55.7917 104.239 55.6853 104.678 55.6853 104.331C55.6853 103.986 55.3411 102.72 54.8808 102.489C54.4226 102.258 53.7321 102.03 54.0784 101.454C54.4226 100.878 50.8373 83.6005 50.8373 83.6005L54.0531 77.2676L56.2342 77.0368C56.2342 77.0368 56.897 77.4171 57.1047 80.8455C57.1152 81.0191 57.304 81.3378 57.3121 81.5274C57.3187 81.685 57.145 81.711 57.1498 81.8801C57.1508 81.9162 57.1518 81.9526 57.1528 81.9892C57.1571 82.1573 57.6097 82.281 57.6165 82.4432C57.6286 82.733 57.8064 84.5815 57.8256 84.8532C57.8472 85.1594 57.8727 85.4545 57.9021 85.7382C58.2195 88.8277 58.3331 89.0887 58.5298 90.0749C58.8342 91.6012 60.0962 100.516 60.0962 100.516C60.0962 100.516 61.0147 100.744 61.0147 101.551C61.0147 102.358 62.0277 103.979 61.5695 104.9C61.1092 105.823 62.0277 105.593 61.4534 106.168Z" fill="#FFD690"/>
<path d="M45.8216 71.2721C48.83 71.2721 51.2689 68.8265 51.2689 65.8097C51.2689 62.793 48.83 60.3474 45.8216 60.3474C42.8131 60.3474 40.3743 62.793 40.3743 65.8097C40.3743 68.8265 42.8131 71.2721 45.8216 71.2721Z" fill="#FFB8B8"/>
<path d="M34.083 77.2894C32.9303 76.8797 31.7775 76.4693 30.6248 76.0582C30.8235 75.7239 31.0765 75.4252 31.3734 75.1746C32.471 74.2556 33.9858 74.0896 35.3793 73.7796C36.7749 73.4695 38.2898 72.834 38.7999 71.4965C39.3299 70.1059 38.5614 68.6045 38.1154 67.1873C37.4565 65.1995 37.5365 63.0399 38.3406 61.1066C39.1732 59.1712 40.8575 57.7352 42.8963 57.2225C44.9147 56.773 47.1959 57.506 48.437 59.1623C50.0917 58.6646 51.8566 59.4839 52.5488 61.0711C52.8681 61.8003 52.8188 62.6389 52.4163 63.3254C51.9857 63.9786 51.0648 64.313 50.3714 63.9499L50.7733 62.9268C49.5301 63.3497 48.7218 65.604 48.8897 66.9105C49.0553 68.2148 49.8149 69.3574 50.5856 70.4225C51.3564 71.4877 52.1778 72.5639 52.5091 73.8371C52.9861 75.6684 52.3412 77.6702 51.1488 79.1384C49.9563 80.6065 48.2758 81.603 46.5356 82.336C45.233 82.8851 43.8793 83.3035 42.4944 83.5849C42.7418 83.1022 42.9869 82.6194 43.2342 82.1367L40.2994 83.9171C39.7318 83.9724 39.1599 84.0056 38.5879 84.0167C36.9229 84.0455 35.2247 83.8706 33.701 83.204C32.175 82.5353 30.8346 81.324 30.2825 79.7496C30.1055 79.2403 30.0217 78.7032 30.0352 78.1641C31.3844 77.8718 32.7337 77.5802 34.083 77.2894Z" fill="#2F2E41"/>
<path d="M86.7239 177.187H76.621L76.5776 177.108C76.4484 176.873 76.3237 176.624 76.2072 176.368C75.1665 174.134 74.7266 171.579 74.3385 169.325L74.0463 167.626C73.9481 167.055 74.3301 166.512 74.8995 166.413C75.1783 166.365 75.4646 166.432 75.6933 166.599C77.2286 167.72 78.7646 168.839 80.3012 169.957C80.883 170.381 81.5474 170.873 82.1838 171.404C82.2452 171.105 82.3094 170.805 82.3736 170.509C82.4965 169.942 83.0541 169.583 83.6191 169.706C83.8957 169.767 84.1361 169.937 84.2856 170.178L85.4677 172.082C86.3298 173.473 87.0907 174.843 86.9357 176.321C86.9365 176.339 86.9351 176.357 86.9317 176.375C86.9007 176.617 86.8432 176.856 86.7601 177.086L86.7239 177.187Z" fill="#F0F0F0"/>
<path d="M96.8642 177.406L0.860594 177.5C0.660405 177.499 0.498964 177.335 0.500005 177.135C0.501046 176.935 0.661881 176.774 0.860594 176.773L96.8642 176.679C97.0644 176.68 97.2258 176.844 97.2247 177.045C97.2237 177.244 97.0629 177.405 96.8642 177.406Z" fill="#CACACA"/>
<path d="M27.8636 5.77812C29.2854 5.77812 30.438 4.59658 30.438 3.13906C30.438 1.68155 29.2854 0.5 27.8636 0.5C26.4418 0.5 25.2892 1.68155 25.2892 3.13906C25.2892 4.59658 26.4418 5.77812 27.8636 5.77812Z" fill="#3F3D56"/>
<path d="M36.757 5.77812C38.1789 5.77812 39.3315 4.59658 39.3315 3.13906C39.3315 1.68155 38.1789 0.5 36.757 0.5C35.3352 0.5 34.1826 1.68155 34.1826 3.13906C34.1826 4.59658 35.3352 5.77812 36.757 5.77812Z" fill="#3F3D56"/>
<path d="M45.6506 5.77812C47.0724 5.77812 48.225 4.59658 48.225 3.13906C48.225 1.68155 47.0724 0.5 45.6506 0.5C44.2288 0.5 43.0762 1.68155 43.0762 3.13906C43.0762 4.59658 44.2288 5.77812 45.6506 5.77812Z" fill="#3F3D56"/>
<path d="M55.7915 5.2249C55.7125 5.2249 55.6335 5.19419 55.5739 5.13308L53.8368 3.35245C53.7211 3.2338 53.7211 3.0442 53.8368 2.92555L55.5739 1.14507C55.6918 1.02463 55.8847 1.02269 56.0044 1.1403C56.1247 1.2582 56.1267 1.45153 56.0092 1.57197L54.4803 3.139L56.0092 4.70618C56.1267 4.82661 56.1247 5.01994 56.0044 5.13784C55.9452 5.19598 55.8684 5.2249 55.7915 5.2249Z" fill="#3F3D56"/>
<path d="M58.7105 5.22489C58.6336 5.22489 58.5568 5.19597 58.4976 5.13784C58.3773 5.01994 58.3753 4.82676 58.4928 4.70617L60.0215 3.13899L58.4928 1.57196C58.3753 1.45152 58.3773 1.2582 58.4976 1.14029C58.6175 1.02224 58.8105 1.02448 58.9281 1.14506L60.665 2.92554C60.7808 3.04419 60.7808 3.23379 60.665 3.35244L58.9281 5.13307C58.8685 5.19419 58.7895 5.22489 58.7105 5.22489Z" fill="#3F3D56"/>
<path d="M149.585 0.805542H146.355C145.987 0.805542 145.688 1.1047 145.688 1.47408V4.71602C145.688 5.0854 145.987 5.38456 146.355 5.38456H149.585C149.954 5.38456 150.255 5.0854 150.255 4.71602V1.47408C150.255 1.1047 149.954 0.805542 149.585 0.805542Z" fill="#3F3D56"/>
<path d="M141.67 0.805542H138.44C138.072 0.805542 137.773 1.1047 137.773 1.47408V4.71602C137.773 5.0854 138.072 5.38456 138.44 5.38456H141.67C142.038 5.38456 142.34 5.0854 142.34 4.71602V1.47408C142.34 1.1047 142.038 0.805542 141.67 0.805542Z" fill="#3F3D56"/>
<path d="M157.044 0.958176H153.814C153.445 0.958176 153.147 1.25733 153.147 1.62671V4.86866C153.147 5.23804 153.445 5.53719 153.814 5.53719H157.044C157.412 5.53719 157.713 5.23804 157.713 4.86866V1.62671C157.713 1.25733 157.412 0.958176 157.044 0.958176Z" fill="#3F3D56"/>
<path d="M108.359 2.19145H82.5405C82.0899 2.19145 81.7277 2.55778 81.7277 3.00653C81.7277 3.45528 82.0899 3.82159 82.5405 3.82159H108.359C108.807 3.82159 109.172 3.45526 109.172 3.00653C109.172 2.55779 108.807 2.19145 108.359 2.19145Z" fill="#3F3D56"/>
</g>
<defs>
<clipPath id="clip0_28_124">
<rect width="164" height="177" fill="white" transform="translate(0.5 0.5)"/>
</clipPath>
</defs>
</svg>
