<svg xmlns="http://www.w3.org/2000/svg" width="245" height="178" fill="none" viewBox="0 0 245 178">
  <g clip-path="url(#a)">
    <path fill="#FFD690" d="M62.325 71.421H36.376c-.919 0-1.664.775-1.664 1.73v5.744c0 .955.745 1.73 1.664 1.73h25.949c.919 0 1.664-.775 1.664-1.73v-5.743c0-.956-.745-1.73-1.664-1.73Zm30.638 9.206H67.014c-.919 0-1.663.775-1.663 1.73v5.744c0 .956.744 1.73 1.663 1.73h25.95c.918 0 1.663-.774 1.663-1.73v-5.743c0-.956-.745-1.73-1.664-1.73Zm30.641 9.204H97.655c-.919 0-1.664.775-1.664 1.73v5.744c0 .956.745 1.73 1.664 1.73h25.949c.919 0 1.664-.774 1.664-1.73v-5.743c0-.956-.745-1.73-1.664-1.73ZM62.325 57.615H36.376c-.919 0-1.664.775-1.664 1.73v5.744c0 .955.745 1.73 1.664 1.73h25.949c.919 0 1.664-.775 1.664-1.73v-5.743c0-.956-.745-1.73-1.664-1.73Zm30.638 9.205H67.014c-.919 0-1.663.774-1.663 1.73v5.743c0 .955.744 1.73 1.663 1.73h25.95c.918 0 1.663-.775 1.663-1.73v-5.744c0-.955-.745-1.73-1.664-1.73Zm30.641 9.205H97.655c-.919 0-1.664.775-1.664 1.73V83.5c0 .956.745 1.73 1.664 1.73h25.949c.919 0 1.664-.774 1.664-1.73v-5.743c0-.956-.745-1.73-1.664-1.73Zm34.043-4.604h-25.949c-.919 0-1.664.775-1.664 1.73v5.744c0 .955.745 1.73 1.664 1.73h25.949c.919 0 1.664-.775 1.664-1.73v-5.743c0-.956-.745-1.73-1.664-1.73Zm30.638 9.206h-25.949c-.919 0-1.664.775-1.664 1.73v5.744c0 .956.745 1.73 1.664 1.73h25.949c.919 0 1.664-.774 1.664-1.73v-5.743c0-.956-.745-1.73-1.664-1.73Zm30.641 9.204h-25.949c-.919 0-1.664.775-1.664 1.73v5.744c0 .956.745 1.73 1.664 1.73h25.949c.919 0 1.664-.774 1.664-1.73v-5.743c0-.956-.745-1.73-1.664-1.73Zm-61.279-32.216h-25.949c-.919 0-1.664.775-1.664 1.73v5.744c0 .955.745 1.73 1.664 1.73h25.949c.919 0 1.664-.775 1.664-1.73v-5.743c0-.956-.745-1.73-1.664-1.73Zm30.638 9.205h-25.949c-.919 0-1.664.774-1.664 1.73v5.743c0 .955.745 1.73 1.664 1.73h25.949c.919 0 1.664-.775 1.664-1.73v-5.744c0-.955-.745-1.73-1.664-1.73Zm30.641 9.205h-25.949c-.919 0-1.664.775-1.664 1.73V83.5c0 .956.745 1.73 1.664 1.73h25.949c.919 0 1.664-.774 1.664-1.73v-5.743c0-.956-.745-1.73-1.664-1.73ZM62.325 39.205H36.376c-.919 0-1.664.775-1.664 1.73v5.743c0 .956.745 1.73 1.664 1.73h25.949c.919 0 1.664-.774 1.664-1.73v-5.743c0-.956-.745-1.73-1.664-1.73Zm30.638 9.204H67.014c-.919 0-1.663.775-1.663 1.73v5.743c0 .956.744 1.73 1.663 1.73h25.95c.918 0 1.663-.774 1.663-1.73V50.14c0-.956-.745-1.73-1.664-1.73Zm30.641 9.206H97.655c-.919 0-1.664.775-1.664 1.73v5.744c0 .955.745 1.73 1.664 1.73h25.949c.919 0 1.664-.775 1.664-1.73v-5.743c0-.956-.745-1.73-1.664-1.73ZM62.325 25.396H36.376c-.919 0-1.664.775-1.664 1.73v5.744c0 .956.745 1.73 1.664 1.73h25.949c.919 0 1.664-.774 1.664-1.73v-5.743c0-.956-.745-1.73-1.664-1.73Zm30.638 9.207H67.014c-.919 0-1.663.774-1.663 1.73v5.743c0 .956.744 1.73 1.663 1.73h25.95c.918 0 1.663-.774 1.663-1.73v-5.743c0-.956-.745-1.73-1.664-1.73Zm30.641 9.204H97.655c-.919 0-1.664.774-1.664 1.73v5.743c0 .956.745 1.73 1.664 1.73h25.949c.919 0 1.664-.774 1.664-1.73v-5.743c0-.956-.745-1.73-1.664-1.73Zm34.043-4.602h-25.949c-.919 0-1.664.775-1.664 1.73v5.743c0 .956.745 1.73 1.664 1.73h25.949c.919 0 1.664-.774 1.664-1.73v-5.743c0-.956-.745-1.73-1.664-1.73Zm30.638 9.204h-25.949c-.919 0-1.664.775-1.664 1.73v5.743c0 .956.745 1.73 1.664 1.73h25.949c.919 0 1.664-.774 1.664-1.73V50.14c0-.956-.745-1.73-1.664-1.73Zm30.641 9.206h-25.949c-.919 0-1.664.775-1.664 1.73v5.744c0 .955.745 1.73 1.664 1.73h25.949c.919 0 1.664-.775 1.664-1.73v-5.743c0-.956-.745-1.73-1.664-1.73Zm-61.279-32.219h-25.949c-.919 0-1.664.775-1.664 1.73v5.744c0 .956.745 1.73 1.664 1.73h25.949c.919 0 1.664-.774 1.664-1.73v-5.743c0-.956-.745-1.73-1.664-1.73Zm30.638 9.207h-25.949c-.919 0-1.664.774-1.664 1.73v5.743c0 .956.745 1.73 1.664 1.73h25.949c.919 0 1.664-.774 1.664-1.73v-5.743c0-.956-.745-1.73-1.664-1.73Zm30.641 9.204h-25.949c-.919 0-1.664.774-1.664 1.73v5.743c0 .956.745 1.73 1.664 1.73h25.949c.919 0 1.664-.774 1.664-1.73v-5.743c0-.956-.745-1.73-1.664-1.73ZM122.5 177.5c67.655 0 122.5-10.375 122.5-23.173 0-12.798-54.845-23.173-122.5-23.173S0 141.529 0 154.327C0 167.125 54.845 177.5 122.5 177.5Z" opacity=".1"/>
    <path fill="#3F3D56" d="m53.748 75.26-10.302 65.676 46.581-5.124-2.015-5.59-36.392 3.144 8.51-58.223-6.382.116Z"/>
    <path fill="#3F3D56" d="M41.654.733 104.36.5l18.14 142.764-62.93 8.85L41.654.733Z"/>
    <path fill="#fff" d="M48.485 6.206h50.612l17.692 132.75-52.18 7.453L48.485 6.206Z"/>
    <path fill="#3F3D56" d="M96.217 132.985c.318.633.556 1.318.97 1.888 1.21 1.682 3.505 1.945 5.227 3.042a.492.492 0 0 1 .204.205c.078.193-.096.396-.264.517-1.306.952-3.02.973-4.616.962a5.923 5.923 0 0 1-1.597-.159c-.844-.233-1.567-.845-2.4-1.094a6.198 6.198 0 0 0-1.32-.194l-1.749-.123a3.988 3.988 0 0 1-1.364-.263 1.38 1.38 0 0 1-.56-.415 1.456 1.456 0 0 1-.3-.645c-.049-.386.11-.761.204-1.139.224-.894.155-1.975.825-2.585.275-.22.592-.378.929-.466 1.217-.426 2.46-.77 3.72-1.029 1.037-.212 1.632.58 2.091 1.498Zm-19.783 5.037c.044.496.058 1.064-.287 1.411a1.498 1.498 0 0 1-.75.35c-1.655.4-3.5.428-4.94-.508a1.384 1.384 0 0 1-.39-.347 1.298 1.298 0 0 1-.197-.64c-.052-.66.143-1.309.32-1.945a35.35 35.35 0 0 0 .952-4.6c.018-.128 4.226.699 4.506 1.132.351.536.353 1.821.448 2.459.141.892.254 1.787.338 2.688Z"/>
    <path fill="#192534" d="m92.097 77.418 1.12 10.827c.223 2.213.459 4.437.304 6.657-.18 2.561-.869 5.123-.578 7.662.114.987.374 1.956.412 2.951.007.661-.025 1.322-.096 1.979-.506 6.57 1.095 13.089 1.99 19.612.145.805.177 1.627.095 2.441-.116.827-.35 1.912.358 2.303l-6.647 2.506c-.848-1.106-.286-2.827-.447-4.231-.148-1.265-.816-2.392-1.172-3.61-.322-1.095-.39-2.248-.495-3.384-.58-6.188-2.36-12.216-2.777-18.418a8.7 8.7 0 0 0-.224-1.777c-.224-.77-.671-1.444-.998-2.168-.502-1.087-.748-2.28-.99-3.458l-1.422-6.93c-1.438 2.227-1.38 5.124-1.664 7.793-.399 3.726-1.29 7.389-2.016 11.069a22.814 22.814 0 0 0-.378 2.399c-.188 2.159.186 4.339-.014 6.495-.224 2.499-1.234 4.938-.99 7.437.135 1.383.645 2.692.99 4.034.345 1.341.515 2.813-.01 4.091a11.661 11.661 0 0 0-5.759-.661c-2.134-2.271-2.512-5.438-2.658-8.617-.145-3.179.206-6.363-.175-9.511-.111-.932-.286-1.84-.315-2.77-.094-2.978 1.283-5.766 1.968-8.661.617-2.606.676-5.321.173-7.953-.336-1.74-.914-3.428-1.12-5.191-.28-2.471.195-4.961.672-7.402.32-1.647.638-3.293 1-4.93.39-1.759.854-3.554 1.895-4.993 1.667-2.304 4.625-3.326 7.39-3.103 2.766.224 5.349 1.533 7.633 3.163a29.116 29.116 0 0 1 4.945 4.348Z"/>
    <path fill="#FBBEBE" d="M84.666 35.958c-.126.21-.213.442-.257.685-.056.477.224.915.447 1.332.287.536.508 1.107.657 1.7.106.367.139.754.096 1.134a2.809 2.809 0 0 1-.291.816c-.432.866-1.073 1.667-1.944 2.028a3.3 3.3 0 0 1-2.103.089 6.28 6.28 0 0 1-1.924-.95 5.92 5.92 0 0 1-1.316-1.188 8.295 8.295 0 0 1-.91-1.63c-.465-1.014-.938-2.097-.853-3.208.004-.1.023-.2.054-.295.072-.173.174-.33.3-.466a6.235 6.235 0 0 0 1.37-4.227l3.263.77c.72.17 1.438.34 2.148.553.582.174 1.478.416 1.857.957.378.54-.336 1.407-.594 1.9Z"/>
    <path fill="#FBBEBE" d="M82.92 35.38c3.274 0 5.93-2.76 5.93-6.166 0-3.406-2.656-6.167-5.93-6.167-3.276 0-5.93 2.76-5.93 6.167 0 3.406 2.654 6.167 5.93 6.167Z"/>
    <path fill="#F2F2F2" d="M81.965 41.655c.251-.57.793-.932 1.288-1.29.495-.36.996-.818 1.093-1.44.006-.14.04-.278.098-.405.19-.298.643-.149.914.07.658.533 1.106 1.29 1.543 2.028a17.582 17.582 0 0 1 1.445 2.84c.629 1.725.705 3.61.774 5.452.063 1.676.124 3.379-.268 5.004-.247 1.03-.672 2.029-.697 3.089-.074 3.85-1.36 7.53-1.449 11.379a30.678 30.678 0 0 0 .162 3.333l.21 2.498a153.94 153.94 0 0 1-9.742-.891c-.094-1.151-.41-2.267-.698-3.38a76.01 76.01 0 0 1-2.265-13.913c-.172-2.497-.349-4.984-.616-7.471-.24-2.262-.71-4.537-.427-6.794a9.642 9.642 0 0 1 .918-2.939c.145-.366.396-.678.717-.892.16-.08.33-.138.506-.17a9.046 9.046 0 0 1 1.54-.188 1 1 0 0 1 .377.037c.218.113.397.294.513.517a9.396 9.396 0 0 0 4.064 3.526Z"/>
    <path fill="#FFD690" d="M79.215 41.161c.417.62 1.3.766 1.684 1.398.13.263.229.542.294.83.235.781.71 1.459.999 2.22.416 1.095.427 2.306.432 3.482a12.01 12.01 0 0 1-.206 2.795c-.135.575-.354 1.122-.515 1.69a8.585 8.585 0 0 0-.3 2.982c0 .217.055.43.16.617.153.187.35.327.574.405.656.3 1.344.608 2.06.538a.736.736 0 0 0 .41-.142.946.946 0 0 0 .202-.277l.448-.787c.405-.72.828-1.526.672-2.348a4.753 4.753 0 0 0-.509-1.204 14.482 14.482 0 0 1-.73-1.88c-.714-2.135-1.438-4.3-1.599-6.555a5.979 5.979 0 0 1 .269-2.543c.21-.503.475-.979.788-1.419a.586.586 0 0 0-.281-.212.563.563 0 0 0-.348-.01 3.663 3.663 0 0 0-.652.283c-.658.288-1.388.184-2.053-.014-.26-.08-.672-.35-.941-.331-.092.012-.842.51-.858.482Z"/>
    <path fill="#F2F2F2" d="M84.458 41.136c-.135-.112-.343-.215-.462-.084a.552.552 0 0 0-.085.188c-.116.326-.459.487-.77.613s-.647.195-.835-.044a.541.541 0 0 1 .029-.622 1.83 1.83 0 0 1 .49-.431 5.004 5.004 0 0 0 1.953-3.196c.289.24.48.583.535.962.074.37.083.753.157 1.123.11.531.354 1.027.41 1.565.029.286 0 .575 0 .862.01.28.041.559.094.834-.524-.578-.894-1.256-1.516-1.77Zm-4.533-1.582c-.224-.221-.448-.43-.672-.657a9.116 9.116 0 0 1-2.165-3.575c-.287.233-.603.54-.61.932.026.277.129.54.296.757a12.098 12.098 0 0 1 1.642 4.567 1.31 1.31 0 0 1 .486-.467c.198-.11.42-.165.645-.16.353 0 1.941.979 2.056.732.167-.387-1.41-1.866-1.678-2.129Z"/>
    <path fill="#3F3D56" d="M84.926 37.7a18.471 18.471 0 0 0 7.52 4.735c.282.064.543.202.76.4.16.21.27.458.315.723.546 2.221.73 4.52.911 6.805.048.378.04.76-.022 1.136-.132.61-.549 1.104-.959 1.563-1.285 1.432-2.752 2.93-2.969 4.877a8.23 8.23 0 0 1-.128 1.118c-.112.433-.36.815-.513 1.236-.747 2.075.943 4.588-.087 6.521.558 1.115.94 2.315 1.133 3.554.035.47.138.932.307 1.37.307.666.938 1.09 1.436 1.63 1.516 1.616 1.702 4.09 1.791 6.347.056 1.271.038 2.731-.896 3.565-.54.487-1.276.645-1.982.766-.938.163-1.96.28-2.79-.202-.596-.345-1.001-.948-1.388-1.53-.735-1.111-1.472-2.22-2.168-3.359-1.102-1.795-2.141-3.847-1.823-5.953-.09 2.155-.526 4.325-1.543 6.203-1.017 1.877-2.654 3.444-4.64 4.064-1.987.619-4.31.181-5.79-1.328a8.125 8.125 0 0 1-1.233-1.73 17.298 17.298 0 0 1-1.823-4.824c-.097-.44-.168-.931.044-1.325.101-.186.256-.333.361-.517.354-.626.013-1.416-.33-2.054-.521.051-.895-.587-.848-1.132.047-.545.36-1.018.582-1.514.65-1.462.506-3.165.193-4.741-.314-1.577-.782-3.145-.746-4.754.038-1.702-1.14-3.235-2.038-4.658-.502-.8-1.086-1.546-1.523-2.387a7.978 7.978 0 0 1-.586-5.766c.313-.99.724-1.944 1.227-2.846l.739-1.442c.138-.344.351-.65.623-.893a2.25 2.25 0 0 1 .944-.504l5.113-2.096a7.579 7.579 0 0 0 1.846-.96c.624-.489 1.09-1.164 1.686-1.686a.914.914 0 0 1 .672-.305c.479.044.65.673.698 1.164.113 1.1.896 2.031 1.163 3.1 1.442 5.904 4.494 11.35 5.332 17.376.94-2.35 1.881-4.704 3.086-6.916.19-.318.35-.654.477-1.004a4.445 4.445 0 0 0 .159-1.558c-.06-1.517-.448-2.998-.83-4.463-.498-1.993-.946-3.83-1.463-5.806Z"/>
    <path fill="#3F3D56" d="M94.67 55.74c.098.992.195 1.987.372 2.967.206 1.135.52 2.243.83 3.352.153.623.37 1.227.65 1.8.101.166.182.346.24.533.11.466-.141.932-.249 1.398-.323 1.397.645 2.95.036 4.238-.184.392-.504.715-.625 1.135-.141.482 0 .996.074 1.495.19 1.397-.269 2.818-.721 4.162l-.77 2.268c-.704-1.36-1.414-2.734-2.386-3.901-.347-.42-.725-.808-1.045-1.25a8.906 8.906 0 0 1-1.12-2.269 20.349 20.349 0 0 1-1.158-5.99 4.25 4.25 0 0 1 .19-1.723c.148-.32.314-.632.498-.932.6-1.125.723-2.457.712-3.743-.011-1.285-.144-2.575 0-3.854a9.079 9.079 0 0 1 .895-3.058 4.313 4.313 0 0 1 1.216-1.577 2.14 2.14 0 0 1 1.344-.454c.732.044.564.699.627 1.33l.39 4.073Zm-32.94-3.17a69.711 69.711 0 0 0-1.237 4.23 80.142 80.142 0 0 0-.96 4.215 9.366 9.366 0 0 0-.243 1.896c.03.744.152 1.481.365 2.192 1.443 5.405 4.072 10.391 7.032 15.08a13.254 13.254 0 0 1 2.979-2.828.653.653 0 0 0 .224-.233.655.655 0 0 0-.072-.545c-.817-1.742-2.112-3.276-2.52-5.17-.17-.787-.176-1.607-.369-2.39-.248-1.013-.804-1.94-.931-2.978-.137-1.132.224-2.366-.287-3.37 1.041-.422 1.644-1.537 2.085-2.606a14.697 14.697 0 0 0 1.003-3.426 10.66 10.66 0 0 0-1.211-6.556 10.422 10.422 0 0 0-2.027-2.646c-.267-.249-.896-.964-1.283-.957-.518.012-.683.883-.831 1.274-.598 1.598-1.19 3.198-1.718 4.819Z"/>
    <path fill="#FBBEBE" d="M71.005 78.638c.067.052.144.122.126.206-.018.083-.083.104-.141.14a1.805 1.805 0 0 0-.645.907 26 26 0 0 0-.972 2.676 11.619 11.619 0 0 0-1.756-2.13c-.51-.49-1.082-.953-1.355-1.614 0-.02 1.174-.92 1.281-1.018.33-.305.743-1.15 1.084-1.337.385-.21.752.612 1.046.943.403.455.85.866 1.332 1.227Z"/>
    <path fill="#192534" d="M89.217 28.25c-.016-.306-.054-.643-.278-.841a1.029 1.029 0 0 0-.672-.194c-1.305-.044-2.656.184-3.888-.272-.81-.3-1.502-.878-2.293-1.237-.79-.358-1.803-.454-2.44.15-.485.465-.617 1.18-.785 1.84a10.957 10.957 0 0 1-1.932 3.986c-.607-.195-1.042-.759-1.322-1.35-.951-2.017-.483-4.425.193-6.564.224-.717.472-1.427.721-2.135l.546-1.565a2.898 2.898 0 0 0 1.873-.969l.235.594a2.908 2.908 0 0 0 1.68-.617c.188.368.671.465 1.063.347.392-.12.73-.347 1.12-.466 1.041-.35 2.152.189 3.245.25a12.1 12.1 0 0 1 1.386.041c1.29.217 2.202 1.479 2.596 2.774.262.862.479 1.921 1.296 2.226.018.326-.537.39-.584.699a.553.553 0 0 0 .067.296l.75 1.674a1.796 1.796 0 0 1-1.084-.056c-.338.827-1.46 2.02-1.493 1.388Z"/>
    <path fill="#FBBEBE" d="M127.234 31.894c.38 1.277.68 2.579.896 3.897.161.987.255 2.084-.289 2.908 2.074-3.244 4.24-6.586 7.391-8.68a7.078 7.078 0 0 1-1.433-2.511 7.266 7.266 0 0 1-.325-2.901c.017-.196-2.587.827-2.786.943-.914.529-1.752 1.186-2.643 1.752-.461.29-2.383.98-2.401 1.397 0 .268.764 1.087.907 1.37.282.585.51 1.196.683 1.825Z"/>
    <path fill="#fff" d="M136.871 154.252a3.358 3.358 0 0 0-3.548-.279c-1.014.545-1.697 1.577-2.62 2.275-1.585 1.197-3.679 1.293-5.536 1.94-.492.173-1.016.429-1.225.932a1.724 1.724 0 0 0 .092 1.297c.31.72.854 1.302 1.536 1.647.833.414 1.792.433 2.715.445l8.017.097c2.463.031 4.943.061 7.39.38.571.075 1.189.156 1.693-.135.82-.466.914-1.644.851-2.615a24.808 24.808 0 0 0-1.567-7.174c-.097-.253-.224-.542-.495-.589a.787.787 0 0 0-.533.177c-2.262 1.398-5.126 2.187-7.532 1.069"/>
    <path fill="#3F3D56" d="M140.884 101.059c-.896 5.41-.311 10.97.696 16.356.186 1.073.43 2.134.733 3.177.36 1.188.846 2.329 1.184 3.524.86 3.028.739 6.265.612 9.425l-.587 14.381c-.049 1.207-.094 2.441.255 3.592.141.465.314 1.048-.042 1.362a.983.983 0 0 1-.473.189 7.066 7.066 0 0 1-4.703-.734l-.159-14.528c-.049-4.478-.1-8.976-.763-13.398-.527-3.517-1.44-6.987-1.501-10.546-.062-3.726.815-7.404 1.711-11.016.193-.773.896-1.339 1.474-1.863.201-.207.447-.361.716-.452.269-.077.681.296.847.531Z"/>
    <path fill="#000" d="M140.884 101.059c-.896 5.41-.311 10.97.696 16.356.186 1.073.43 2.134.733 3.177.36 1.188.846 2.329 1.184 3.524.86 3.028.739 6.265.612 9.425l-.587 14.381c-.049 1.207-.094 2.441.255 3.592.141.465.314 1.048-.042 1.362a.983.983 0 0 1-.473.189 7.066 7.066 0 0 1-4.703-.734l-.159-14.528c-.049-4.478-.1-8.976-.763-13.398-.527-3.517-1.44-6.987-1.501-10.546-.062-3.726.815-7.404 1.711-11.016.193-.773.896-1.339 1.474-1.863.201-.207.447-.361.716-.452.269-.077.681.296.847.531Z" opacity=".1"/>
    <path fill="#3F3D56" d="M124.068 84.151c-.332 1.418.371 2.888.293 4.346-.045.883-.378 1.763-.224 2.63.155.866.75 1.518 1.068 2.312a6.49 6.49 0 0 1 .363 2.068c.092 1.742.018 3.493-.045 5.229-.105 2.911-.183 5.838.186 8.724.322 2.5.975 4.941 1.942 7.254.293.63.535 1.283.723 1.954.124.626.206 1.259.246 1.896a19.863 19.863 0 0 0 1.584 5.988c.571 1.297 1.567 2.329 1.883 3.705.3 1.318.099 2.709.316 4.043.159.99.546 1.926.761 2.905.28 1.264.274 2.575.415 3.866.403 3.726 2.031 7.452 1.059 11.067-.195.726-.497 1.465-.361 2.205.068.364.238.722.162 1.083-.063.308-.291.545-.408.836-.224.545.014 1.193.412 1.614.425.393.92.697 1.456.895 1.65.733 3.359 1.478 5.151 1.462.217.012.434-.029.633-.121.323-.175.482-.554.619-.904l.918-2.361c.112-.287.224-.622.069-.887a1.604 1.604 0 0 0-.385-.373c-.741-.65-.573-1.863-.376-2.839.503-2.506.782-5.056.833-7.616.098-5.105-.71-10.18-1.516-15.217-.28-1.749-.562-3.51-1.12-5.187-.558-1.676-1.38-3.29-1.245-5.032.143-1.882-.327-3.855 0-5.711.327-1.856.844-3.673 1.178-5.527.432-2.405.539-4.858.672-7.299.056-.996.127-2.026.575-2.91.262-.518.643-.96.936-1.461.757-1.302.878-2.916 1.601-4.239.343-.626.816-1.178 1.066-1.849a5.331 5.331 0 0 0 .274-1.644 20.321 20.321 0 0 0-.224-4.204 25.479 25.479 0 0 0-12.317-2.972c-1.638.028-3.292.2-4.829.79-1.464.566-2.799 1.36-4.344 1.481Z"/>
    <path fill="#fff" d="M133.249 157.937c-.658.852-.613 2.07-1.034 3.074-.511 1.218-1.648 1.998-2.728 2.709l-6.718 4.425c-.368.233-.762.519-.896.952-.064.277-.052.566.033.836a3.67 3.67 0 0 0 .87 1.551c.41.433.918.752 1.477.927a6.666 6.666 0 0 0 1.817.194l3.021.041c.92.038 1.842.001 2.757-.111.837-.126 1.652-.375 2.485-.534 1.517-.286 3.075-.26 4.594-.538.929-.19 1.848-.436 2.75-.738 1.097-.342 2.215-.699 3.155-1.376.259-.164.469-.4.607-.68.159-.385.072-.825-.018-1.232l-1.442-6.591a4.047 4.047 0 0 0-.564-1.54c-.321-.442-.896-.736-1.396-.547-.206.098-.4.219-.58.363-.739.506-1.686.59-2.559.431-.565-.105-1.311-.265-1.765-.654-.345-.296-.448-.755-.741-1.09a2.105 2.105 0 0 0-.728-.506 2.04 2.04 0 0 0-1.71.07 2.132 2.132 0 0 0-.687.564Z"/>
    <path fill="#FBBEBE" d="M128.894 30.986c4.468 0 8.091-3.767 8.091-8.415 0-4.647-3.623-8.414-8.091-8.414-4.469 0-8.092 3.767-8.092 8.414 0 4.648 3.623 8.415 8.092 8.415Z"/>
    <path fill="#192534" d="M122.652 23.065c.775-.452.775-1.754 1.568-2.187.793-.433 1.693.32 2.201 1.079a10.127 10.127 0 0 1 1.512 3.696c.072.377.139.79.412 1.052.273.264.632.296.981.333 1.023.106 2.047.202 3.073.29 1.142.095 2.347.172 3.383-.339.41-.19.761-.493 1.017-.875a4.06 4.06 0 0 0 .435-1.183c.535-2.117 1.075-4.26 1.119-6.45.018-.903-.058-1.84-.477-2.63-.244-.467-.602-.872-.703-1.384-.101-.513.224-1.165.735-1.109a2.912 2.912 0 0 1-1.344-.265c-.405-.233-.705-.734-.562-1.19-1.138.15-1.966-1.018-2.853-1.775a.758.758 0 0 0-.542-.233c-.156.04-.306.1-.448.18-.448.162-.916-.147-1.375-.282-1.232-.36-2.797.507-3.711-.424.087.594-.614.992-1.191.98-.578-.011-1.174-.233-1.72-.033a1.203 1.203 0 0 1-.219 1.41 1.116 1.116 0 0 1-.422.258l.271.615a1.51 1.51 0 0 0-.745.398 1.602 1.602 0 0 0-.431.748c-.297 1.222-.223 2.96-.152 4.217.036.552.553 4.896.188 5.103Z"/>
    <path fill="#FFD690" d="M129.557 33.417c-4.065 4.754-5.1 11.445-5.966 17.745l-1.277 9.301c-.331 2.413-.672 4.826-.961 7.246-.201 1.656-.389 3.337-.17 4.99.173 1.305.591 2.563.941 3.818a37.336 37.336 0 0 1 1.343 10.128c.271-.829 1.21-1.164 2.034-1.35a31.725 31.725 0 0 1 20.572 2.284c1.131-3.295.918-6.9 1.234-10.384.448-4.968 1.991-9.782 2.448-14.74.167-1.847.188-3.703.206-5.56.013-1.362.026-2.738-.247-4.073-.304-1.476-.947-2.853-1.612-4.192a110.375 110.375 0 0 0-9.641-15.96c-.62-.853-1.252-1.696-1.897-2.53-.625-.808-.896-1.509-1.888-1.024-1.874.913-3.756 2.706-5.119 4.301Z"/>
    <path fill="#FBBEBE" d="M131.886 72.981c-.992.038-1.985.005-2.972-.097-.732-.075-1.48-.187-2.195 0a2.26 2.26 0 0 0-.853.435.679.679 0 0 0-.193.325.675.675 0 0 0 .218.696.63.63 0 0 0 .34.144l.766.07c.486.044.992.095 1.37.465a.897.897 0 0 1 .278.562c.047.542-.405.838-.811 1.064a6.418 6.418 0 0 0-1.581 1.095 2.321 2.321 0 0 0-.656 1.397.29.29 0 0 0 .03.136.255.255 0 0 0 .351.113c.896-.466 1.48-1.847 2.463-1.616a4.015 4.015 0 0 0-2.163 1.73 1.077 1.077 0 0 0 .111 1.29.974.974 0 0 0 1.233.184 4.52 4.52 0 0 0 .421-.29 10.616 10.616 0 0 0 1.776-1.92c-.717 1.572-1.443 3.412-.618 4.975a.49.49 0 0 0 .184.206c.08.05.171.073.263.069.26-.028.336-.282.379-.506.134-.72.168-1.478.508-2.119.789-1.486 2.732-1.63 4.213-2.355 1.776-.857 2.992-2.701 3.482-4.671a3.728 3.728 0 0 0 .088-1.775c-.33-1.325-1.902-1.63-2.912-.99-1.238.818-1.957 1.332-3.52 1.383Z"/>
    <path fill="#000" d="M130.314 46.914c1.567 2.517 4.288 3.935 6.622 5.703a5.64 5.64 0 0 1 1.464 1.449c.589.945.672 2.147.551 3.26-.152 1.47-.607 2.884-1.057 4.286l-.978 3.039c-.621 1.928-1.261 3.896-2.441 5.517-.303.412-.654.852-.641 1.37.026.298.125.585.287.833a5.518 5.518 0 0 0 1.463 1.634 5.298 5.298 0 0 0 1.961.91c.422.111.865.111 1.288 0 .604-.187 1.059-.7 1.48-1.184 2.015-2.312 4.031-4.657 5.487-7.37 1.422-2.649 2.273-5.59 3.057-8.504a18.57 18.57 0 0 0 .671-3.29c.166-2.096-.362-4.193-1.227-6.086-.864-1.894-2.053-3.608-3.278-5.273a36.388 36.388 0 0 0-3.841-4.583c-2.437-2.369-5.417-3.761-8.678-2.418-2.302.95-3.165 2.933-3.371 5.471a8.59 8.59 0 0 0 1.181 5.236Z" opacity=".1"/>
    <path fill="#FFD690" d="M131.129 46.276c1.567 2.517 4.291 3.935 6.622 5.703.567.39 1.062.883 1.458 1.458.589.946.672 2.145.551 3.26-.155 1.47-.607 2.884-1.059 4.286l-.979 3.027c-.62 1.929-1.261 3.894-2.441 5.518-.3.412-.652.85-.638 1.37.024.297.123.584.286.83a5.525 5.525 0 0 0 1.463 1.635 5.287 5.287 0 0 0 1.959.911c.423.112.867.112 1.29 0 .605-.184 1.057-.699 1.48-1.18 2.016-2.316 4.031-4.659 5.487-7.372 1.422-2.648 2.273-5.59 3.057-8.505.324-1.072.549-2.173.672-3.289.166-2.096-.363-4.192-1.225-6.087-.862-1.896-2.054-3.608-3.279-5.273a36.293 36.293 0 0 0-3.849-4.558c-2.435-2.366-5.415-3.761-8.676-2.415-2.305.95-3.165 2.93-3.373 5.47a8.595 8.595 0 0 0 1.194 5.21Z"/>
    <path fill="#3F3D56" d="M180.648 129.812a8.912 8.912 0 0 1-.251 2.136c-.636 2.653-2.429 4.593-4.57 4.716h-.224c-2.264 0-4.179-2.031-4.811-4.828a8.91 8.91 0 0 1-.228-2.04c0-3.789 2.255-6.859 5.039-6.859 2.783 0 5.045 3.093 5.045 6.875Z"/>
    <path fill="#000" d="M180.648 129.812a8.912 8.912 0 0 1-.251 2.136h-.224a9.88 9.88 0 0 1-1.648-.233 9.747 9.747 0 0 1-2.62.461h-.39a9.802 9.802 0 0 1-3.545-.654 9.882 9.882 0 0 1-1.169.326 8.91 8.91 0 0 1-.228-2.04c0-3.789 2.255-6.859 5.039-6.859 2.783 0 5.036 3.081 5.036 6.863Z" opacity=".1"/>
    <path fill="#FFD690" d="M191.398 117.036a10.96 10.96 0 0 0-1.097-4.8l-5.926 1.917 5.202-3.182a10.418 10.418 0 0 0-3.349-3.19 9.964 9.964 0 0 0-4.346-1.37c-.243-.384-.51-.751-.799-1.099l-8.51 2.755 6.98-4.269a10.031 10.031 0 0 0-4.563-2.058 9.861 9.861 0 0 0-4.958.42 10.192 10.192 0 0 0-4.182 2.8 10.76 10.76 0 0 0-2.421 4.518l7.289 8.727-7.907-5.948c-2.003 1.477-3.429 3.654-4.018 6.133a11.03 11.03 0 0 0 .808 7.374c1.111 2.278 2.972 4.065 5.243 5.035a9.874 9.874 0 0 0 7.133.252 9.909 9.909 0 0 0 6.557.189 9.869 9.869 0 0 0 4.541-.031 10.105 10.105 0 0 0 4.082-2.068 10.606 10.606 0 0 0 2.823-3.698 11.014 11.014 0 0 0 1.01-4.604c0-.233 0-.466-.022-.699a11.03 11.03 0 0 0 .43-3.104Z"/>
    <path fill="#000" d="M191.221 119.011a26.257 26.257 0 0 0-9.482-.126c-3.559.613-7.196 1.959-10.676.976-2.042-.578-3.807-1.915-5.802-2.657a10.607 10.607 0 0 0-5.991-.373 11.049 11.049 0 0 0-.634 5.978 10.82 10.82 0 0 0 2.579 5.383 10.178 10.178 0 0 0 4.971 3.074 9.866 9.866 0 0 0 5.78-.215 9.909 9.909 0 0 0 6.557.189 9.864 9.864 0 0 0 4.54-.031 10.103 10.103 0 0 0 4.083-2.068 10.618 10.618 0 0 0 2.823-3.698 11.03 11.03 0 0 0 1.01-4.604c0-.233 0-.466-.022-.699.108-.371.196-.748.264-1.129Z" opacity=".1"/>
  </g>
  <defs>
    <clipPath id="a">
      <path fill="#fff" d="M0 .5h245v177H0z"/>
    </clipPath>
  </defs>
</svg>
