<svg xmlns="http://www.w3.org/2000/svg" width="211" height="178" fill="none" viewBox="0 0 211 178">
  <g clip-path="url(#a)">
    <path fill="#3F3D56" d="M0 177.117c0 .185.153.333.343.333h210.314c.19 0 .343-.148.343-.333a.337.337 0 0 0-.343-.332H.343a.337.337 0 0 0-.343.332Z"/>
    <path fill="#A0616A" d="m127.906 39.809 1.153 6.428-12.4 1.956 2.884-8.943 8.363.559Zm31.627 4.251c2.497 1.084 3.097 5.05 1.335 8.854a10.483 10.483 0 0 1-3.063 3.935l-2.517 6.512c-1.653 7.764-5.41 15.938-10.59 15.304-7.328-.897-9.637-9.528-9.637-9.528l9.862-3.74 4.404-8.224 1.499-3.357a10.13 10.13 0 0 1 .995-4.832c1.759-3.806 5.211-6.009 7.712-4.924Z"/>
    <path fill="#2F2E41" d="m75.588 168.979-6.838-4.9.055-.106 38.098-73.567.072-.011 30.678-5.048 6.391 13.793 16.708 22.769a8.852 8.852 0 0 1 1.739 5.341l-.271 40.558-10.367.288-.014-.129-3.617-32.791c-.262-2.39-1.543-4.601-3.509-6.065l-20.395-15.184-48.733 55.054.003-.002Z"/>
    <path fill="#2F2E41" d="M69.797 164.596s-3.46.559-4.614 2.516c-1.154 1.956-4.614 6.148-4.614 6.148s-2.596 4.751 3.46 4.192c6.056-.558 8.363-3.074 8.363-3.074l2.596-6.987-5.191-2.795Zm87.379 0s3.461.559 4.615 2.516c1.153 1.956 4.614 6.148 4.614 6.148s2.595 4.751-3.461 4.192c-6.056-.558-8.363-3.074-8.363-3.074l-2.595-6.987 5.19-2.795Z"/>
    <path fill="#FFD690" d="M110.891 47.914 131.366 44l11.536 3.633-3.173 41.643-32.731 1.257 3.893-42.62Z"/>
    <path fill="#FFD690" d="m140.848 46.704 4.459 6.528 1.035 16.095-13.245.976.357-20.855 7.394-2.744Z"/>
    <path fill="#A0616A" d="m153.105 62.368-5.359-2.062-6.814 12.233 6.223 3.007 5.95-13.178Z"/>
    <path fill="#3F3D56" d="M156.842 51.958a3.39 3.39 0 0 1-1.102-.185 3.242 3.242 0 0 1-1.912-1.747l-4.066-9.256a97.001 97.001 0 0 0-5.228-10.212l-.848-1.442c-.585-.872-14.419-21.503-15.077-23.116-.496-1.216.987-3.706 1.05-3.812l.017-.023c.032-.036 3.351-3.54 7.346-.285 3.921 3.195 10.52 24.368 10.799 25.268l.179.436a62.178 62.178 0 0 0 6.117 11.403l5.465 8.049a3.11 3.11 0 0 1 .435 2.543 3.197 3.197 0 0 1-1.655 2.018c-.473.24-.995.36-1.52.36Z"/>
    <path fill="#A0616A" d="m120.379 54.904 6.44.349 12.368-12.647 4.834-5.567a10.353 10.353 0 0 1 2.379-4.354c2.811-3.158 6.768-4.313 8.842-2.58 2.073 1.733 1.476 5.696-1.336 8.854a10.741 10.741 0 0 1-4.098 2.92l-1.191 1.524-13.652 18.596c-2.462 3.357-6.817 4.875-10.923 3.807l-8.355-2.172 4.692-8.733v.002Z"/>
    <path fill="#FFD690" d="m116.766 67.365-9.935-6.184c-3.158-1.965-4.372-5.816-2.887-9.156.903-2.03 2.673-3.55 4.859-4.17a7.813 7.813 0 0 1 6.417.961l9.756 6.364-8.21 12.185Z"/>
    <path fill="#A0616A" d="M121.567 42.173c5.622 0 10.18-4.417 10.18-9.865 0-5.45-4.558-9.866-10.18-9.866s-10.18 4.417-10.18 9.866c0 5.448 4.558 9.865 10.18 9.865Z"/>
    <path fill="#2F2E41" d="m128.263 40.823-.879-1.42s3.85-2.515.669-3.974-3.683-5.028-3.683-5.028-9.291-2.593-8.79-4.541c.502-1.948-.92-3.326 1.422-4.136 2.345-.81 12.804 0 13.978 2.35 1.171 2.353 2.344 8.84 1.759 9.734-.585.895-4.476 7.018-4.476 7.018v-.003Z"/>
    <path fill="#FFD690" d="m125.625 29.67-9.459-6.082s-12.219-3.647-7.616 3.326l3.893.771s10.586 2.392 13.182 1.984Z"/>
    <path fill="#FFD690" d="m122.778 28.291 9.877 7.22s5.774-9.978-3.267-14.925c-9.041-4.947-14.771 2.8-14.771 2.8l2.385 2.474 5.776 2.431ZM51.81 12c0 3.013 2.521 5.459 5.633 5.459a5.697 5.697 0 0 0 3.916-1.54A5.353 5.353 0 0 0 63.072 12c0-3.013-2.52-5.459-5.63-5.459-.974 0-1.888.24-2.687.66a5.66 5.66 0 0 0-.398.235 5.44 5.44 0 0 0-2.503 3.904 4.978 4.978 0 0 0-.044.66Z"/>
    <path fill="#E6E6E6" d="M51.854 11.341c.09.095.182.198.282.316.34.397.476.612.667.91.164.26.372.585.778 1.133.84 1.129 1.26 1.696 1.915 2.21.646.506 1.45 1.138 2.659 1.219.084.006.167.006.248.006 1.462 0 2.53-.853 2.936-1.236a4.365 4.365 0 0 0 1.332-2.705c.038-.386.09-1.738-.825-2.954-.807-1.073-1.923-1.456-3.005-1.83-.706-.244-1.243-.33-1.718-.409-.652-.106-1.212-.198-2.068-.634a5.64 5.64 0 0 1-.3-.165c-.136.073-.268.15-.398.235.02.01.043.025.066.039.113.064.251.142.442.24.914.467 1.534.57 2.188.676.482.079.98.16 1.653.392 1.067.369 2.076.715 2.809 1.69.83 1.105.781 2.332.75 2.68a3.978 3.978 0 0 1-1.212 2.46c-.39.366-1.444 1.213-2.87 1.118-1.08-.072-1.828-.66-2.43-1.129-.612-.48-1.021-1.034-1.837-2.132a15.91 15.91 0 0 1-.764-1.113c-.19-.299-.34-.536-.698-.953a9.945 9.945 0 0 0-.514-.559c-.04.162-.069.327-.086.495Z"/>
  </g>
  <defs>
    <clipPath id="a">
      <path fill="#fff" d="M0 .5h211v177H0z"/>
    </clipPath>
  </defs>
</svg>
