<svg xmlns="http://www.w3.org/2000/svg" width="245" height="178" fill="none" viewBox="0 0 245 178">
  <g clip-path="url(#a)">
    <path fill="#3F3D56" d="M193.792 121.015h-6.406l-.023-.028c-1.139-1.437-1.652-3.46-1.369-5.404.09-.63.26-1.239.506-1.813l1.948-4.534L187.676 93a1.215 1.215 0 0 1 .246-.808.847.847 0 0 1 .663-.34h1.198c.493 0 .893.459.913 1.041l.522 16.046 2.698 5.013c.229.427.416.883.549 1.354.529 1.825.336 3.808-.533 5.44l-.143.265h.003v.004Z"/>
    <path fill="#FFD690" d="M193.24 119.89a.32.32 0 0 1-.28.183h-4.875a.308.308 0 0 1-.246-.131c-.823-1.113-1.186-2.574-1.042-3.995.016-.154.113-.285.239-.325 1.019-.32 2.248-.502 3.57-.502 1.035 0 2.011.114 2.877.316.12.028.216.131.249.27.347 1.393.184 2.921-.489 4.184h-.003Z"/>
    <path fill="#3F3D56" d="M244.667 124.447H.333c-.183 0-.333-.178-.333-.396 0-.217.15-.395.333-.395h244.334c.183 0 .333.178.333.395 0 .218-.15.396-.333.396Z"/>
    <path fill="#A0616A" d="M71.739 50.91c-3.58-1.275-5.93-4.505-5.248-7.213.683-2.709 4.139-3.873 7.718-2.598 1.435.487 2.754 1.374 3.843 2.59l15.113 5.626-2.37 8.377-14.648-6.437a7.915 7.915 0 0 1-4.408-.349v.004Z"/>
    <path fill="#E6E6E6" d="m138.782 53.111.183 14.796s-15.643-.246-21.117.265c-5.474.515-39.587-14.332-39.587-14.332l5.668-9.554 37.632 10.801 17.221-1.98v.004Z"/>
    <path fill="#FFD690" d="M72.854 32.991h-2.33v37.612h2.33V32.991Z"/>
    <path fill="#3F3D56" d="M81.268 124.051H67.786l-.05-.063c-2.397-3.029-3.476-7.281-2.883-11.375a15.05 15.05 0 0 1 1.065-3.812l4.102-9.538-1.628-34.167a2.518 2.518 0 0 1 .523-1.695c.366-.459.862-.712 1.395-.712h2.52c1.036 0 1.882.962 1.922 2.193l1.096 33.771 5.68 10.548c.486.902.876 1.86 1.159 2.85 1.112 3.841.706 8.014-1.12 11.446l-.299.558v-.004Z"/>
    <path fill="#FFD690" d="M80.11 121.688c-.127.237-.35.384-.59.384H69.258a.655.655 0 0 1-.52-.273c-1.73-2.344-2.493-5.412-2.194-8.406.034-.328.237-.597.506-.681 2.141-.673 4.729-1.061 7.512-1.061 2.178 0 4.236.242 6.054.666.25.059.456.273.526.562.726 2.93.383 6.148-1.032 8.809Z"/>
    <path fill="#A0616A" d="m128.793 32.2 1.998 16.232-15.983 1.98.999-20.984 12.986 2.771Z"/>
    <path fill="#A0616A" d="M113.6 37.033c5.952 0 10.778-5.738 10.778-12.816 0-7.077-4.826-12.815-10.778-12.815-5.953 0-10.779 5.738-10.779 12.816s4.826 12.815 10.779 12.815ZM80.016 82.366c-3.05-3.255-6.972-3.987-8.764-1.635-1.791 2.351-.772 6.896 2.278 10.15 1.202 1.323 2.66 2.273 4.255 2.776l13.07 13.592 5.39-7.566L82.79 87.089c-.586-1.825-1.539-3.445-2.774-4.723Z"/>
    <path fill="#E6E6E6" d="m115.807 46.452 16.316-2.771 9.656 8.71.999 47.906 9.323 76.411-61.933.792s4.662-49.489 6.993-52.261c2.33-2.771 3.995-15.44 3.995-15.44l4.662-54.637 9.989-8.71Z"/>
    <path fill="#E6E6E6" d="M109.647 54.964s-8.657-.791-10.655 6.335c-1.998 7.126-4.328 30.485-4.328 30.485l-5.328.792-4.662-5.938-4.994 14.252s17.647 22.964 24.307 12.67c6.659-10.294 5.66-58.596 5.66-58.596Z"/>
    <path fill="#2F2E41" d="M131.956 30.833s0-12.689.999-16.648c.999-3.96-4.661-8.314-6.326-12.273-1.665-3.96-11.987 1.583-16.316 2.375-4.328.792-3.995 3.96-6.659 9.106-2.664 5.147 2.664 13.065 6.659 13.857 3.996.792 2.664 4.355 5.404 8.315 2.741 3.959 11.498 0 11.498 0l1.079 1.979s-2.331 11.086 1.998 20.588l11.321 3.563c-3.33-11.878.333-11.878 2.42-18.014 2.088-6.137-12.077-12.848-12.077-12.848Z"/>
    <path fill="#F2F2F2" d="M211.14 120.615h-5.933v-11.83h5.933c.676 0 1.219-.653 1.219-1.457s-.546-1.445-1.219-1.449h-41.368c-.676 0-1.219.653-1.219 1.457s.546 1.445 1.219 1.449h5.061v11.83h-5.061c-.676 0-1.219.653-1.219 1.457s.546 1.445 1.219 1.449h41.368c.676 0 1.219-.653 1.219-1.457s-.546-1.445-1.219-1.449Zm-33.863 0 2.79-8.837 22.692-2.993v11.83h-25.482Z"/>
  </g>
  <defs>
    <clipPath id="a">
      <path fill="#fff" d="M0 .5h245v177H0z"/>
    </clipPath>
  </defs>
</svg>
