<svg width="144" height="25" viewBox="0 0 144 25" fill="none" xmlns="http://www.w3.org/2000/svg">
<path d="M132 17.77L136.15 20.28C136.91 20.74 137.84 20.06 137.64 19.2L136.54 14.48L140.21 11.3C140.88 10.72 140.52 9.62001 139.64 9.55001L134.81 9.14001L132.92 4.68001C132.58 3.87001 131.42 3.87001 131.08 4.68001L129.19 9.13001L124.36 9.54001C123.48 9.61001 123.12 10.71 123.79 11.29L127.46 14.47L126.36 19.19C126.16 20.05 127.09 20.73 127.85 20.27L132 17.77Z" fill="#9AA0A6"/>
<path d="M102 17.77L106.15 20.28C106.91 20.74 107.84 20.06 107.64 19.2L106.54 14.48L110.21 11.3C110.88 10.72 110.52 9.62001 109.64 9.55001L104.81 9.14001L102.92 4.68001C102.58 3.87001 101.42 3.87001 101.08 4.68001L99.1899 9.13001L94.36 9.54001C93.48 9.61001 93.12 10.71 93.79 11.29L97.46 14.47L96.36 19.19C96.16 20.05 97.09 20.73 97.85 20.27L102 17.77Z" fill="#9AA0A6"/>
<path d="M72 17.77L76.15 20.28C76.91 20.74 77.8399 20.06 77.6399 19.2L76.54 14.48L80.2099 11.3C80.8799 10.72 80.5199 9.62001 79.6399 9.55001L74.81 9.14001L72.92 4.68001C72.58 3.87001 71.42 3.87001 71.08 4.68001L69.1899 9.13001L64.36 9.54001C63.48 9.61001 63.12 10.71 63.79 11.29L67.46 14.47L66.36 19.19C66.16 20.05 67.09 20.73 67.85 20.27L72 17.77Z" fill="#9AA0A6"/>
<path d="M42 17.77L46.15 20.28C46.91 20.74 47.8399 20.06 47.6399 19.2L46.54 14.48L50.2099 11.3C50.8799 10.72 50.5199 9.62001 49.6399 9.55001L44.81 9.14001L42.92 4.68001C42.58 3.87001 41.42 3.87001 41.08 4.68001L39.1899 9.13001L34.36 9.54001C33.48 9.61001 33.12 10.71 33.79 11.29L37.46 14.47L36.36 19.19C36.16 20.05 37.09 20.73 37.85 20.27L42 17.77Z" fill="#9AA0A6"/>
<path d="M12 17.77L16.15 20.28C16.91 20.74 17.8399 20.06 17.6399 19.2L16.54 14.48L20.2099 11.3C20.8799 10.72 20.5199 9.62001 19.6399 9.55001L14.81 9.14001L12.92 4.68001C12.58 3.87001 11.42 3.87001 11.08 4.68001L9.18995 9.13001L4.35995 9.54001C3.47995 9.61001 3.11995 10.71 3.78995 11.29L7.45995 14.47L6.35995 19.19C6.15995 20.05 7.08995 20.73 7.84995 20.27L12 17.77Z" fill="#9AA0A6"/>
</svg>
