<svg width="18" height="17" viewBox="0 0 18 17" fill="none" xmlns="http://www.w3.org/2000/svg">
<path fill-rule="evenodd" clip-rule="evenodd" d="M7.75 1.62501C7.01131 1.62501 6.27986 1.7705 5.59741 2.05319C4.91495 2.33587 4.29485 2.7502 3.77252 3.27253C3.25019 3.79486 2.83586 4.41496 2.55318 5.09741C2.27049 5.77987 2.125 6.51132 2.125 7.25001C2.125 7.98869 2.27049 8.72015 2.55318 9.4026C2.83586 10.0851 3.25019 10.7052 3.77252 11.2275C4.29485 11.7498 4.91495 12.1641 5.59741 12.4468C6.27986 12.7295 7.01131 12.875 7.75 12.875C9.24184 12.875 10.6726 12.2824 11.7275 11.2275C12.7824 10.1726 13.375 8.74185 13.375 7.25001C13.375 5.75817 12.7824 4.32743 11.7275 3.27253C10.6726 2.21764 9.24184 1.62501 7.75 1.62501ZM0.875 7.25001C0.875146 6.14592 1.1412 5.05811 1.65066 4.07859C2.16012 3.09907 2.89799 2.25666 3.80186 1.62261C4.70574 0.988561 5.74902 0.58153 6.84347 0.435946C7.93791 0.290362 9.05132 0.410509 10.0895 0.786222C11.1277 1.16194 12.0601 1.78216 12.808 2.59444C13.5558 3.40672 14.0969 4.38715 14.3857 5.45281C14.6745 6.51846 14.7023 7.63799 14.4669 8.71669C14.2315 9.79539 13.7398 10.8015 13.0333 11.65L16.9417 15.5583C17.0031 15.6156 17.0523 15.6846 17.0865 15.7612C17.1206 15.8379 17.139 15.9207 17.1405 16.0046C17.142 16.0885 17.1265 16.1718 17.0951 16.2497C17.0637 16.3275 17.0169 16.3982 16.9575 16.4575C16.8982 16.5169 16.8275 16.5637 16.7497 16.5951C16.6718 16.6265 16.5885 16.642 16.5046 16.6405C16.4206 16.639 16.3379 16.6207 16.2612 16.5865C16.1846 16.5523 16.1156 16.5031 16.0583 16.4417L12.15 12.5333C11.146 13.3696 9.92452 13.9024 8.6286 14.0694C7.33268 14.2364 6.01602 14.0306 4.83284 13.4762C3.64967 12.9218 2.64899 12.0416 1.94803 10.939C1.24707 9.83626 0.874856 8.55664 0.875 7.25001Z" fill="black"/>
</svg>
