<svg width="96" height="96" viewBox="0 0 96 96" fill="none" xmlns="http://www.w3.org/2000/svg">
<rect x="33.9821" y="19.437" width="38" height="51" transform="rotate(8.6752 33.9821 19.437)" fill="white"/>
<path d="M42.5753 82.4541C23.466 79.5384 10.3392 61.6847 13.2549 42.5753C16.1706 23.466 34.0243 10.3392 53.1336 13.2549C72.243 16.1706 85.3692 34.0278 82.4541 53.1336C79.5389 72.2395 61.6847 85.3697 42.5753 82.4541ZM50.4941 30.5547C49.5764 30.4147 48.6407 30.6449 47.8929 31.1948C47.145 31.7447 46.6462 32.5691 46.5062 33.4868L43.8666 50.7865C43.7266 51.7042 43.9568 52.6399 44.5067 53.3877C45.0566 54.1356 45.881 54.6344 46.7986 54.7744C47.7163 54.9144 48.652 54.6842 49.3998 54.1343C50.1477 53.5844 50.6465 52.76 50.7865 51.8424L53.4261 34.5426C53.5661 33.6249 53.3359 32.6893 52.786 31.9414C52.2361 31.1935 51.4117 30.6947 50.4941 30.5547ZM45.2149 65.1543C46.1325 65.2943 47.0682 65.064 47.8161 64.5142C48.564 63.9643 49.0628 63.1399 49.2028 62.2222C49.3428 61.3046 49.1125 60.3689 48.5627 59.6211C48.0128 58.8732 47.1884 58.3744 46.2707 58.2344C45.3531 58.0944 44.4174 58.3246 43.6696 58.8745C42.9217 59.4243 42.4229 60.2488 42.2829 61.1664C42.1428 62.084 42.3731 63.0197 42.923 63.7676C43.4728 64.5155 44.2973 65.0143 45.2149 65.1543Z" fill="#1C429A"/>
</svg>
